<?xml version="1.0" encoding="UTF-8" standalone="no"?>
<!-- Generator: Adobe Illustrator 16.0.0, SVG Export Plug-In . SVG Version: 6.00 Build 0)  -->

<svg
   xmlns:dc="http://purl.org/dc/elements/1.1/"
   xmlns:cc="http://creativecommons.org/ns#"
   xmlns:rdf="http://www.w3.org/1999/02/22-rdf-syntax-ns#"
   xmlns:svg="http://www.w3.org/2000/svg"
   xmlns="http://www.w3.org/2000/svg"
   xmlns:sodipodi="http://sodipodi.sourceforge.net/DTD/sodipodi-0.dtd"
   xmlns:inkscape="http://www.inkscape.org/namespaces/inkscape"
   version="1.1"
   id="Capa_1"
   x="0px"
   y="0px"
   width="98px"
   height="98px"
   viewBox="0 0 98 98"
   style="enable-background:new 0 0 98 98;"
   xml:space="preserve"
   sodipodi:docname="truck.svg"
   inkscape:version="0.92.4 (5da689c313, 2019-01-14)"><metadata
   id="metadata52"><rdf:RDF><cc:Work
       rdf:about=""><dc:format>image/svg+xml</dc:format><dc:type
         rdf:resource="http://purl.org/dc/dcmitype/StillImage" /></cc:Work></rdf:RDF></metadata><defs
   id="defs50" /><sodipodi:namedview
   pagecolor="#ffffff"
   bordercolor="#666666"
   borderopacity="1"
   objecttolerance="10"
   gridtolerance="10"
   guidetolerance="10"
   inkscape:pageopacity="0"
   inkscape:pageshadow="2"
   inkscape:window-width="1920"
   inkscape:window-height="1017"
   id="namedview48"
   showgrid="false"
   inkscape:zoom="4.8163265"
   inkscape:cx="52.558377"
   inkscape:cy="51.445236"
   inkscape:window-x="1912"
   inkscape:window-y="-8"
   inkscape:window-maximized="1"
   inkscape:current-layer="iconos_35_" />
<g
   id="g15">
	<g
   id="iconos_35_">
		<path
   d="M33.795,74.866c0-6.766-5.483-12.25-12.25-12.25c-6.766,0-12.25,5.484-12.25,12.25c0,6.767,5.484,12.25,12.25,12.25    C28.312,87.116,33.795,81.633,33.795,74.866z M17.5,74.866c0-2.233,1.811-4.045,4.045-4.045s4.049,1.812,4.049,4.045    c0,2.236-1.812,4.048-4.049,4.048C19.311,78.916,17.5,77.106,17.5,74.866z"
   id="path2" />
		<path
   d="M63,33.634v24.993c0,0,0.67-0.166,4.045-0.166c7.523,0,11.34,3.696,13.17,6.551c0.957-0.997,2.296-1.627,3.785-1.627    h12.25V45.009l-7.438-11.375H63z M91,52.885H77v-14h10.5l3.5,5.579V52.885z"
   id="path4"
   style="fill:#ffffff" />
		<path
   d="M5.14,51.135c0,0,28.875,5.356,32.704,19.25h13.232c0,0,1.643-8.75,8.424-11.155V30.134h30.789l5.086-7H56l-4.812,10.5H0    v7h5.25L5.14,51.135z"
   id="path6"
   style="fill:#800000" />
		<path
   d="M84,66.885c-0.814,0-1.473,0.572-1.664,1.328c-0.035,0.14-0.086,0.272-0.086,0.422v3.5c0,0.966,0.783,1.75,1.75,1.75    h12.25c0.965,0,1.75-0.784,1.75-1.75v-3.5c0-0.965-0.785-1.75-1.75-1.75H84z"
   id="path8"
   style="fill:#ffffff" />
		<path
   d="M79.295,74.866c0-0.166-0.018-0.325-0.023-0.489c-0.043-1.088-0.213-2.142-0.521-3.138    c-1.547-4.994-6.199-8.623-11.703-8.623c-6.767,0-12.25,5.484-12.25,12.25c0,6.767,5.483,12.25,12.25,12.25    S79.295,81.633,79.295,74.866z M63,74.866c0-2.233,1.811-4.045,4.045-4.045c2.236,0,4.049,1.812,4.049,4.045    c0,2.236-1.811,4.048-4.049,4.048C64.811,78.916,63,77.106,63,74.866z"
   id="path10" />
		<polygon
   points="51.918,22.297 50.094,17.884 44.844,17.884 40.25,10.884 33.469,10.884 26.25,19.634 20.707,19.634 15.75,24.884     11.957,24.884 6.125,30.134 48.125,30.134   "
   id="polygon12"
   style="fill:#a05a2c" />
	</g>
</g>
<g
   id="g17">
</g>
<g
   id="g19">
</g>
<g
   id="g21">
</g>
<g
   id="g23">
</g>
<g
   id="g25">
</g>
<g
   id="g27">
</g>
<g
   id="g29">
</g>
<g
   id="g31">
</g>
<g
   id="g33">
</g>
<g
   id="g35">
</g>
<g
   id="g37">
</g>
<g
   id="g39">
</g>
<g
   id="g41">
</g>
<g
   id="g43">
</g>
<g
   id="g45">
</g>
</svg>